<?xml version="1.0" encoding="utf-8"?>
<svg viewBox="0 0 128 128" xmlns="http://www.w3.org/2000/svg">
  <path d="M64 0C28.7 0 0 28.7 0 64s28.7 64 64 64c11.2 0 21.7-2.9 30.8-7.9L48.4 55.3v36.6h-6.8V41.8h6.8l50.5 75.8C116.4 106.2 128 86.5 128 64c0-35.3-28.7-64-64-64zm22.1 84.6l-7.5-11.3V41.8h7.5v42.8z"/>
  <path style="stroke: rgb(0, 0, 0); fill: rgb(238, 238, 238);" d="M 85.998 84.411 L 86.083 41.757 L 78.49 41.757 L 78.661 73.321 L 85.998 84.411 Z"/>
  <path style="fill: rgb(216, 216, 216); stroke: rgb(0, 0, 0);" d="M 48.291 92.089 L 41.466 92.004 L 41.551 41.671 L 48.461 41.842 L 98.709 117.512 L 94.699 119.986 L 48.376 55.577"/>
</svg>